<svg width="180" height="176" viewBox="0 0 180 176" fill="none" xmlns="http://www.w3.org/2000/svg">
<path fill-rule="evenodd" clip-rule="evenodd" d="M89.993 0C40.3002 0 0 40.2948 0 90.0041C0 129.763 25.7857 163.499 61.5497 175.406C66.0526 176.229 67.6937 173.45 67.6937 171.063C67.6937 168.925 67.6153 163.267 67.5684 155.758C42.5341 161.195 37.2522 143.692 37.2522 143.692C33.158 133.293 27.2572 130.525 27.2572 130.525C19.0855 124.945 27.8758 125.055 27.8758 125.055C36.9093 125.691 41.6609 134.332 41.6609 134.332C49.689 148.084 62.7281 144.112 67.8554 141.808C68.673 135.995 70.9992 132.028 73.5684 129.779C53.5842 127.503 32.5721 119.784 32.5721 85.2967C32.5721 75.4676 36.0807 67.4395 41.8377 61.1465C40.909 58.8701 37.821 49.7203 42.7226 37.3275C42.7226 37.3275 50.2753 34.9077 67.4695 46.5492C74.6467 44.5545 82.3486 43.56 90.0009 43.5214C97.6476 43.5527 105.344 44.555 112.532 46.5492C129.715 34.9077 137.257 37.3275 137.257 37.3275C142.169 49.7203 139.08 58.8701 138.158 61.1465C143.926 67.4395 147.407 75.4676 147.407 85.2967C147.407 119.873 126.361 127.481 106.316 129.707C109.543 132.486 112.422 137.979 112.422 146.377C112.422 158.405 112.312 168.112 112.312 171.063C112.312 173.472 113.936 176.273 118.5 175.395C154.236 163.466 180 129.757 180 90.0041C180 40.2948 139.7 0 89.9906 0" fill="#1B1817"/>
</svg>
