<svg width="1280" height="832" viewBox="0 0 1280 832" fill="none" xmlns="http://www.w3.org/2000/svg">
<rect width="1280" height="832" fill="white"/>
<path d="M222.625 617.875C216.25 617.875 210.615 617 205.719 615.25C200.823 613.521 196.708 610.969 193.375 607.594C190.042 604.219 187.521 600.083 185.813 595.187C184.104 590.292 183.25 584.687 183.25 578.375C183.25 572.271 184.115 566.812 185.844 562C187.594 557.187 190.125 553.104 193.438 549.75C196.771 546.375 200.813 543.802 205.563 542.031C210.333 540.26 215.729 539.375 221.75 539.375C227.604 539.375 232.729 540.333 237.125 542.25C241.542 544.146 245.229 546.719 248.188 549.969C251.167 553.198 253.396 556.833 254.875 560.875C256.375 564.917 257.125 569.083 257.125 573.375C257.125 576.396 256.979 579.458 256.688 582.562C256.396 585.667 255.781 588.521 254.844 591.125C253.906 593.708 252.458 595.792 250.5 597.375C248.563 598.958 245.938 599.75 242.625 599.75C241.167 599.75 239.563 599.521 237.813 599.062C236.062 598.604 234.51 597.844 233.156 596.781C231.802 595.719 231 594.292 230.75 592.5H230.375C229.875 593.708 229.104 594.854 228.063 595.937C227.042 597.021 225.698 597.885 224.031 598.531C222.385 599.177 220.375 599.458 218 599.375C215.292 599.271 212.906 598.667 210.844 597.562C208.781 596.437 207.052 594.917 205.656 593C204.281 591.062 203.24 588.823 202.531 586.281C201.844 583.719 201.5 580.958 201.5 578C201.5 575.187 201.917 572.615 202.75 570.281C203.583 567.948 204.74 565.906 206.219 564.156C207.719 562.406 209.469 561.01 211.469 559.969C213.49 558.906 215.667 558.25 218 558C220.083 557.792 221.979 557.885 223.688 558.281C225.396 558.656 226.802 559.229 227.906 560C229.01 560.75 229.708 561.583 230 562.5H230.375V559H237V587.25C237 589 237.49 590.542 238.469 591.875C239.448 593.208 240.875 593.875 242.75 593.875C244.875 593.875 246.5 593.146 247.625 591.687C248.771 590.229 249.552 587.979 249.969 584.937C250.406 581.896 250.625 578 250.625 573.25C250.625 570.458 250.24 567.708 249.469 565C248.719 562.271 247.573 559.719 246.031 557.344C244.51 554.969 242.583 552.875 240.25 551.062C237.917 549.25 235.177 547.833 232.031 546.812C228.906 545.771 225.354 545.25 221.375 545.25C216.479 545.25 212.094 546.01 208.219 547.531C204.365 549.031 201.083 551.229 198.375 554.125C195.688 557 193.635 560.5 192.219 564.625C190.823 568.729 190.125 573.396 190.125 578.625C190.125 583.937 190.823 588.656 192.219 592.781C193.635 596.906 195.719 600.385 198.469 603.219C201.24 606.052 204.667 608.198 208.75 609.656C212.833 611.135 217.542 611.875 222.875 611.875C225.167 611.875 227.427 611.656 229.656 611.219C231.885 610.781 233.854 610.302 235.563 609.781C237.271 609.26 238.5 608.875 239.25 608.625L241 614.375C239.708 614.917 238.021 615.458 235.938 616C233.875 616.542 231.667 616.99 229.313 617.344C226.979 617.698 224.75 617.875 222.625 617.875ZM219 593C221.792 593 224.052 592.437 225.781 591.312C227.51 590.187 228.771 588.49 229.563 586.219C230.354 583.948 230.75 581.083 230.75 577.625C230.75 574.125 230.313 571.396 229.438 569.437C228.563 567.479 227.271 566.104 225.562 565.312C223.854 564.521 221.75 564.125 219.25 564.125C216.875 564.125 214.844 564.75 213.156 566C211.49 567.229 210.208 568.875 209.313 570.937C208.438 572.979 208 575.208 208 577.625C208 580.292 208.354 582.802 209.063 585.156C209.771 587.49 210.927 589.385 212.531 590.844C214.135 592.281 216.292 593 219 593ZM268.164 553H275.539V604.5C275.539 607.458 275.029 610.021 274.008 612.188C273.008 614.354 271.487 616.031 269.445 617.219C267.424 618.406 264.872 619 261.789 619C261.539 619 261.289 619 261.039 619C260.789 619 260.539 619 260.289 619V612.125C260.539 612.125 260.768 612.125 260.977 612.125C261.185 612.125 261.414 612.125 261.664 612.125C263.914 612.125 265.56 611.458 266.602 610.125C267.643 608.813 268.164 606.938 268.164 604.5V553ZM271.789 545C270.352 545 269.112 544.51 268.07 543.531C267.049 542.552 266.539 541.375 266.539 540C266.539 538.625 267.049 537.448 268.07 536.469C269.112 535.49 270.352 535 271.789 535C273.227 535 274.456 535.49 275.477 536.469C276.518 537.448 277.039 538.625 277.039 540C277.039 541.375 276.518 542.552 275.477 543.531C274.456 544.51 273.227 545 271.789 545ZM289.047 601V553H296.422V601H289.047ZM292.797 545C291.359 545 290.12 544.51 289.078 543.531C288.057 542.552 287.547 541.375 287.547 540C287.547 538.625 288.057 537.448 289.078 536.469C290.12 535.49 291.359 535 292.797 535C294.234 535 295.464 535.49 296.484 536.469C297.526 537.448 298.047 538.625 298.047 540C298.047 541.375 297.526 542.552 296.484 543.531C295.464 544.51 294.234 545 292.797 545ZM317.305 572.125V601H309.93V553H317.055V560.5H317.68C318.805 558.063 320.513 556.104 322.805 554.625C325.096 553.125 328.055 552.375 331.68 552.375C334.93 552.375 337.773 553.042 340.211 554.375C342.648 555.688 344.544 557.688 345.898 560.375C347.253 563.042 347.93 566.417 347.93 570.5V601H340.555V571C340.555 567.229 339.576 564.292 337.617 562.187C335.659 560.062 332.971 559 329.555 559C327.201 559 325.096 559.51 323.242 560.531C321.409 561.552 319.961 563.042 318.898 565C317.836 566.958 317.305 569.333 317.305 572.125ZM395.406 563.75L388.781 565.625C388.365 564.521 387.75 563.448 386.938 562.406C386.146 561.344 385.063 560.469 383.688 559.781C382.313 559.094 380.552 558.75 378.406 558.75C375.469 558.75 373.021 559.427 371.063 560.781C369.125 562.115 368.156 563.812 368.156 565.875C368.156 567.708 368.823 569.156 370.156 570.219C371.49 571.281 373.573 572.167 376.406 572.875L383.531 574.625C387.823 575.667 391.021 577.26 393.125 579.406C395.229 581.531 396.281 584.271 396.281 587.625C396.281 590.375 395.49 592.833 393.906 595C392.344 597.167 390.156 598.875 387.344 600.125C384.531 601.375 381.26 602 377.531 602C372.635 602 368.583 600.938 365.375 598.812C362.167 596.687 360.135 593.583 359.281 589.5L366.281 587.75C366.948 590.333 368.208 592.271 370.063 593.562C371.938 594.854 374.385 595.5 377.406 595.5C380.844 595.5 383.573 594.771 385.594 593.312C387.635 591.833 388.656 590.062 388.656 588C388.656 586.333 388.073 584.937 386.906 583.812C385.74 582.667 383.948 581.812 381.531 581.25L373.531 579.375C369.135 578.333 365.906 576.719 363.844 574.531C361.802 572.323 360.781 569.562 360.781 566.25C360.781 563.542 361.542 561.146 363.063 559.062C364.604 556.979 366.698 555.344 369.344 554.156C372.01 552.969 375.031 552.375 378.406 552.375C383.156 552.375 386.885 553.417 389.594 555.5C392.323 557.583 394.26 560.333 395.406 563.75ZM414.758 572.125V601H407.383V537H414.758V560.5H415.383C416.508 558.021 418.195 556.052 420.445 554.594C422.716 553.115 425.737 552.375 429.508 552.375C432.779 552.375 435.643 553.031 438.102 554.344C440.56 555.635 442.466 557.625 443.82 560.312C445.195 562.979 445.883 566.375 445.883 570.5V601H438.508V571C438.508 567.187 437.518 564.24 435.539 562.156C433.581 560.052 430.862 559 427.383 559C424.966 559 422.799 559.51 420.883 560.531C418.987 561.552 417.487 563.042 416.383 565C415.299 566.958 414.758 569.333 414.758 572.125ZM489.625 581.375V553H497V601H489.625V592.875H489.125C488 595.312 486.25 597.385 483.875 599.094C481.5 600.781 478.5 601.625 474.875 601.625C471.875 601.625 469.208 600.969 466.875 599.656C464.542 598.323 462.708 596.323 461.375 593.656C460.042 590.969 459.375 587.583 459.375 583.5V553H466.75V583C466.75 586.5 467.729 589.292 469.688 591.375C471.667 593.458 474.188 594.5 477.25 594.5C479.083 594.5 480.948 594.031 482.844 593.094C484.76 592.156 486.365 590.719 487.656 588.781C488.969 586.844 489.625 584.375 489.625 581.375ZM511.508 601V537H518.883V560.625H519.508C520.049 559.792 520.799 558.729 521.758 557.437C522.737 556.125 524.133 554.958 525.945 553.938C527.779 552.896 530.258 552.375 533.383 552.375C537.424 552.375 540.987 553.385 544.07 555.406C547.154 557.427 549.56 560.292 551.289 564C553.018 567.708 553.883 572.083 553.883 577.125C553.883 582.208 553.018 586.615 551.289 590.344C549.56 594.052 547.164 596.927 544.102 598.969C541.039 600.99 537.508 602 533.508 602C530.424 602 527.956 601.49 526.102 600.469C524.247 599.427 522.82 598.25 521.82 596.937C520.82 595.604 520.049 594.5 519.508 593.625H518.633V601H511.508ZM518.758 577C518.758 580.625 519.289 583.823 520.352 586.594C521.414 589.344 522.966 591.5 525.008 593.062C527.049 594.604 529.549 595.375 532.508 595.375C535.591 595.375 538.164 594.563 540.227 592.937C542.31 591.292 543.872 589.083 544.914 586.312C545.977 583.521 546.508 580.417 546.508 577C546.508 573.625 545.987 570.583 544.945 567.875C543.924 565.146 542.372 562.99 540.289 561.406C538.227 559.802 535.633 559 532.508 559C529.508 559 526.987 559.76 524.945 561.281C522.904 562.781 521.362 564.885 520.32 567.594C519.279 570.281 518.758 573.417 518.758 577ZM587.789 534L567.164 610.625H560.414L581.039 534H587.789ZM626.781 581.375V553H634.156V601H626.781V592.875H626.281C625.156 595.312 623.406 597.385 621.031 599.094C618.656 600.781 615.656 601.625 612.031 601.625C609.031 601.625 606.365 600.969 604.031 599.656C601.698 598.323 599.865 596.323 598.531 593.656C597.198 590.969 596.531 587.583 596.531 583.5V553H603.906V583C603.906 586.5 604.885 589.292 606.844 591.375C608.823 593.458 611.344 594.5 614.406 594.5C616.24 594.5 618.104 594.031 620 593.094C621.917 592.156 623.521 590.719 624.813 588.781C626.125 586.844 626.781 584.375 626.781 581.375ZM647.664 601V553H654.789V560.25H655.289C656.164 557.875 657.747 555.948 660.039 554.469C662.331 552.99 664.914 552.25 667.789 552.25C668.331 552.25 669.008 552.26 669.82 552.281C670.633 552.302 671.247 552.333 671.664 552.375V559.875C671.414 559.812 670.841 559.719 669.945 559.594C669.07 559.448 668.143 559.375 667.164 559.375C664.831 559.375 662.747 559.865 660.914 560.844C659.102 561.802 657.664 563.135 656.602 564.844C655.56 566.531 655.039 568.458 655.039 570.625V601H647.664ZM687.781 537V601H680.406V537H687.781ZM728.789 570.125V577H700.789V570.125H728.789ZM763.141 553V559.25H737.266V553H763.141ZM745.016 601V546.375C745.016 543.625 745.661 541.333 746.953 539.5C748.245 537.667 749.922 536.292 751.984 535.375C754.047 534.458 756.224 534 758.516 534C760.328 534 761.807 534.146 762.953 534.437C764.099 534.729 764.953 535 765.516 535.25L763.391 541.625C763.016 541.5 762.495 541.344 761.828 541.156C761.182 540.969 760.328 540.875 759.266 540.875C756.828 540.875 755.068 541.49 753.984 542.719C752.922 543.948 752.391 545.75 752.391 548.125V601H745.016ZM786.227 602.125C783.185 602.125 780.424 601.552 777.945 600.406C775.466 599.24 773.497 597.562 772.039 595.375C770.581 593.167 769.852 590.5 769.852 587.375C769.852 584.625 770.393 582.396 771.477 580.687C772.56 578.958 774.008 577.604 775.82 576.625C777.633 575.646 779.633 574.917 781.82 574.437C784.029 573.938 786.247 573.542 788.477 573.25C791.393 572.875 793.758 572.594 795.57 572.406C797.404 572.198 798.737 571.854 799.57 571.375C800.424 570.896 800.852 570.062 800.852 568.875V568.625C800.852 565.542 800.008 563.146 798.32 561.437C796.654 559.729 794.122 558.875 790.727 558.875C787.206 558.875 784.445 559.646 782.445 561.187C780.445 562.729 779.039 564.375 778.227 566.125L771.227 563.625C772.477 560.708 774.143 558.437 776.227 556.812C778.331 555.167 780.622 554.021 783.102 553.375C785.602 552.708 788.06 552.375 790.477 552.375C792.018 552.375 793.789 552.562 795.789 552.937C797.81 553.292 799.758 554.031 801.633 555.156C803.529 556.281 805.102 557.979 806.352 560.25C807.602 562.521 808.227 565.562 808.227 569.375V601H800.852V594.5H800.477C799.977 595.542 799.143 596.656 797.977 597.844C796.81 599.031 795.258 600.042 793.32 600.875C791.383 601.708 789.018 602.125 786.227 602.125ZM787.352 595.5C790.268 595.5 792.727 594.927 794.727 593.781C796.747 592.635 798.268 591.156 799.289 589.344C800.331 587.531 800.852 585.625 800.852 583.625V576.875C800.539 577.25 799.852 577.594 798.789 577.906C797.747 578.198 796.539 578.458 795.164 578.687C793.81 578.896 792.487 579.083 791.195 579.25C789.924 579.396 788.893 579.521 788.102 579.625C786.185 579.875 784.393 580.281 782.727 580.844C781.081 581.385 779.747 582.208 778.727 583.312C777.727 584.396 777.227 585.875 777.227 587.75C777.227 590.312 778.174 592.25 780.07 593.562C781.987 594.854 784.414 595.5 787.352 595.5ZM829.063 537V601H821.688V537H829.063ZM849.945 537V601H842.57V537H849.945ZM864.453 601V537H871.828V560.625H872.453C872.995 559.792 873.745 558.729 874.703 557.437C875.682 556.125 877.078 554.958 878.891 553.938C880.724 552.896 883.203 552.375 886.328 552.375C890.37 552.375 893.932 553.385 897.016 555.406C900.099 557.427 902.505 560.292 904.234 564C905.964 567.708 906.828 572.083 906.828 577.125C906.828 582.208 905.964 586.615 904.234 590.344C902.505 594.052 900.109 596.927 897.047 598.969C893.984 600.99 890.453 602 886.453 602C883.37 602 880.901 601.49 879.047 600.469C877.193 599.427 875.766 598.25 874.766 596.937C873.766 595.604 872.995 594.5 872.453 593.625H871.578V601H864.453ZM871.703 577C871.703 580.625 872.234 583.823 873.297 586.594C874.359 589.344 875.911 591.5 877.953 593.062C879.995 594.604 882.495 595.375 885.453 595.375C888.536 595.375 891.109 594.563 893.172 592.937C895.255 591.292 896.818 589.083 897.859 586.312C898.922 583.521 899.453 580.417 899.453 577C899.453 573.625 898.932 570.583 897.891 567.875C896.87 565.146 895.318 562.99 893.234 561.406C891.172 559.802 888.578 559 885.453 559C882.453 559 879.932 559.76 877.891 561.281C875.849 562.781 874.307 564.885 873.266 567.594C872.224 570.281 871.703 573.417 871.703 577ZM932.234 602.125C929.193 602.125 926.432 601.552 923.953 600.406C921.474 599.24 919.505 597.562 918.047 595.375C916.589 593.167 915.859 590.5 915.859 587.375C915.859 584.625 916.401 582.396 917.484 580.687C918.568 578.958 920.016 577.604 921.828 576.625C923.641 575.646 925.641 574.917 927.828 574.437C930.036 573.938 932.255 573.542 934.484 573.25C937.401 572.875 939.766 572.594 941.578 572.406C943.411 572.198 944.745 571.854 945.578 571.375C946.432 570.896 946.859 570.062 946.859 568.875V568.625C946.859 565.542 946.016 563.146 944.328 561.437C942.661 559.729 940.13 558.875 936.734 558.875C933.214 558.875 930.453 559.646 928.453 561.187C926.453 562.729 925.047 564.375 924.234 566.125L917.234 563.625C918.484 560.708 920.151 558.437 922.234 556.812C924.339 555.167 926.63 554.021 929.109 553.375C931.609 552.708 934.068 552.375 936.484 552.375C938.026 552.375 939.797 552.562 941.797 552.937C943.818 553.292 945.766 554.031 947.641 555.156C949.536 556.281 951.109 557.979 952.359 560.25C953.609 562.521 954.234 565.562 954.234 569.375V601H946.859V594.5H946.484C945.984 595.542 945.151 596.656 943.984 597.844C942.818 599.031 941.266 600.042 939.328 600.875C937.391 601.708 935.026 602.125 932.234 602.125ZM933.359 595.5C936.276 595.5 938.734 594.927 940.734 593.781C942.755 592.635 944.276 591.156 945.297 589.344C946.339 587.531 946.859 585.625 946.859 583.625V576.875C946.547 577.25 945.859 577.594 944.797 577.906C943.755 578.198 942.547 578.458 941.172 578.687C939.818 578.896 938.495 579.083 937.203 579.25C935.932 579.396 934.901 579.521 934.109 579.625C932.193 579.875 930.401 580.281 928.734 580.844C927.089 581.385 925.755 582.208 924.734 583.312C923.734 584.396 923.234 585.875 923.234 587.75C923.234 590.312 924.182 592.25 926.078 593.562C927.995 594.854 930.422 595.5 933.359 595.5ZM987.195 602C982.695 602 978.82 600.938 975.57 598.812C972.32 596.687 969.82 593.76 968.07 590.031C966.32 586.302 965.445 582.042 965.445 577.25C965.445 572.375 966.341 568.073 968.133 564.344C969.945 560.594 972.466 557.667 975.695 555.562C978.945 553.437 982.737 552.375 987.07 552.375C990.445 552.375 993.487 553 996.195 554.25C998.904 555.5 1001.12 557.25 1002.85 559.5C1004.58 561.75 1005.65 564.375 1006.07 567.375H998.695C998.133 565.187 996.883 563.25 994.945 561.562C993.029 559.854 990.445 559 987.195 559C984.32 559 981.799 559.75 979.633 561.25C977.487 562.729 975.81 564.823 974.602 567.531C973.414 570.219 972.82 573.375 972.82 577C972.82 580.708 973.404 583.937 974.57 586.687C975.758 589.437 977.424 591.573 979.57 593.094C981.737 594.615 984.279 595.375 987.195 595.375C989.112 595.375 990.852 595.042 992.414 594.375C993.977 593.708 995.299 592.75 996.383 591.5C997.466 590.25 998.237 588.75 998.695 587H1006.07C1005.65 589.833 1004.62 592.385 1002.98 594.656C1001.35 596.906 999.195 598.698 996.508 600.031C993.841 601.344 990.737 602 987.195 602ZM1023.73 583.5L1023.6 574.375H1025.1L1046.1 553H1055.23L1032.85 575.625H1032.23L1023.73 583.5ZM1016.85 601V537H1024.23V601H1016.85ZM1047.35 601L1028.6 577.25L1033.85 572.125L1056.73 601H1047.35Z" fill="black"/>
<path d="M1092.25 544.5C1091 544.5 1090 545.504 1090 546.75V590.25C1090 591.496 1091 592.5 1092.25 592.5H1135.75C1137 592.5 1138 591.496 1138 590.25V546.75C1138 545.504 1137 544.5 1135.75 544.5H1092.25ZM1126.98 564C1128.2 564 1129.28 564.074 1130.23 564.222C1131.12 564.356 1132 564.584 1132.84 564.902V569.818C1132.44 569.538 1132.01 569.296 1131.56 569.096C1131.09 568.887 1130.61 568.713 1130.12 568.576C1129.19 568.317 1128.23 568.183 1127.27 568.176C1126.67 568.176 1126.12 568.232 1125.63 568.348C1125.19 568.442 1124.77 568.605 1124.39 568.832C1124.05 569.04 1123.79 569.29 1123.6 569.58C1123.41 569.872 1123.32 570.213 1123.32 570.56C1123.32 570.952 1123.43 571.306 1123.63 571.618C1123.84 571.93 1124.14 572.226 1124.52 572.506C1124.9 572.786 1125.36 573.058 1125.91 573.326C1126.46 573.596 1127.07 573.874 1127.76 574.158C1128.7 574.552 1129.55 574.972 1130.29 575.414C1131.04 575.858 1131.68 576.36 1132.22 576.92C1132.76 577.478 1133.16 578.116 1133.45 578.834C1133.73 579.552 1133.88 580.386 1133.88 581.34C1133.88 582.654 1133.63 583.76 1133.13 584.652C1132.65 585.532 1131.95 586.277 1131.11 586.822C1130.2 587.399 1129.19 587.803 1128.13 588.014C1127 588.254 1125.81 588.374 1124.55 588.374C1123.32 588.379 1122.09 588.27 1120.87 588.046C1119.82 587.864 1118.8 587.532 1117.85 587.06V581.8C1119.66 583.338 1121.95 584.188 1124.32 584.2C1124.99 584.2 1125.57 584.14 1126.07 584.02C1126.56 583.9 1126.98 583.732 1127.31 583.52C1127.64 583.304 1127.89 583.052 1128.06 582.76C1128.24 582.42 1128.32 582.035 1128.3 581.65C1128.27 581.264 1128.14 580.894 1127.91 580.582C1127.61 580.189 1127.25 579.85 1126.84 579.582C1126.32 579.242 1125.78 578.945 1125.22 578.694C1124.56 578.39 1123.89 578.099 1123.21 577.822C1121.37 577.056 1120 576.118 1119.1 575.012C1118.2 573.906 1117.75 572.568 1117.75 571.002C1117.75 569.774 1118 568.72 1118.49 567.838C1118.98 566.956 1119.65 566.23 1120.5 565.66C1121.39 565.068 1122.39 564.642 1123.44 564.402C1124.6 564.129 1125.78 563.994 1126.98 564V564ZM1096.75 564.376H1115.88V568.708H1109.01V588H1103.58V568.708H1096.75V564.376Z" fill="#3178C6"/>
<g clip-path="url(#clip0_1_2)">
<path d="M490 440H590V390H690V190H490V440ZM590 240H640V340H590V240ZM730 190V390H830V240H880V390H930V240H980V390H1030V190H730ZM250 390H350V240H400V390H450V190H250V390Z" fill="#231F20"/>
</g>
<defs>
<clipPath id="clip0_1_2">
<rect width="780" height="250" fill="white" transform="translate(250 190)"/>
</clipPath>
</defs>
</svg>
